<?xml version="1.0" encoding="UTF-8" standalone="no"?>
<!-- Created with Inkscape (http://www.inkscape.org/) -->

<svg
   version="1.1"
   id="svg5"
   inkscape:version="1.1.1 (eb90963e84, 2021-10-02)"
   sodipodi:docname="butterfly-page1-paths.svg"
   viewBox="0 0 411 731"
   width="411"
   height="731"
   xmlns:inkscape="http://www.inkscape.org/namespaces/inkscape"
   xmlns:sodipodi="http://sodipodi.sourceforge.net/DTD/sodipodi-0.dtd"
   xmlns="http://www.w3.org/2000/svg"
   xmlns:svg="http://www.w3.org/2000/svg">
  <sodipodi:namedview
     id="namedview7"
     pagecolor="#ffffff"
     bordercolor="#666666"
     borderopacity="1.0"
     inkscape:pageshadow="2"
     inkscape:pageopacity="0.0"
     inkscape:pagecheckerboard="0"
     inkscape:document-units="px"
     showgrid="false"
     units="px"
     showguides="false"
     inkscape:zoom="1.0255231"
     inkscape:cx="202.33577"
     inkscape:cy="328.12523"
     inkscape:window-width="1920"
     inkscape:window-height="1011"
     inkscape:window-x="0"
     inkscape:window-y="0"
     inkscape:window-maximized="1"
     inkscape:current-layer="layer1"
     viewbox-width="411" />
  <defs
     id="defs2" />
  <g
     inkscape:label="Layer 1"
     inkscape:groupmode="layer"
     id="layer1">
    <path
       style="fill:none;stroke:#ff7d00;stroke-width:2;stroke-linecap:round;stroke-linejoin:round;stroke-opacity:1;stroke-miterlimit:4;stroke-dasharray:6,6;stroke-dashoffset:0"
       d="m -3.9127973,9.0660627 c 0,0 35.8140983,78.2804783 108.4797173,83.3384323 72.66561,5.057947 105.71567,-77.901496 135.96286,-63.5555 21.72662,10.304761 27.94712,74.606045 63.25491,74.239355 13.481,-0.14 49.47979,-24.996233 62.24259,-11.417206 5.32021,5.660469 24.90052,79.136626 -58.92038,83.470256 -10.73294,0.47703 -106.7941,-7.78324 -107.03847,76.12865"
       id="path2010"
       sodipodi:nodetypes="csssscc" />
    <path
       style="fill:none;stroke:#ff7d00;stroke-width:2;stroke-linecap:round;stroke-linejoin:miter;stroke-opacity:1;stroke-miterlimit:4;stroke-dasharray:6, 6;stroke-dashoffset:0"
       d="m 200.06843,251.27005 c 0,0 -4.29087,32.45953 -91.03728,35.27499 -23.478271,0.76202 -87.446707,17.72412 -60.864917,69.36168 16.881887,32.79463 72.929057,30.53217 72.929057,30.53217 0,0 40.3751,-2.51917 82.50858,-47.48824 0,0 14.98645,-13.94166 25.01114,-3.0583 10.02469,10.88335 6.89952,20.93009 -5.31534,39.9052 -12.21485,18.97513 -32.77231,18.08591 -42.21133,45.33406 -9.43902,27.2481 -3.04522,36.74279 3.00221,42.10641 11.62809,10.31322 21.28789,8.84252 40.4427,6.31365 36.37629,-4.80249 71.32399,-23.55077 71.32399,-23.55077"
       id="path4911"
       sodipodi:nodetypes="cssccsssssc" />
    <path
       style="fill:none;stroke:#ff7d00;stroke-width:2;stroke-linecap:round;stroke-linejoin:round;stroke-opacity:1;stroke-miterlimit:4;stroke-dasharray:6, 6;stroke-dashoffset:0"
       d="m 295.85724,446.0009 c 0,0 68.14376,-31.1968 71.57335,76.43084 3.42959,107.62765 -169.95901,31.82628 -186.39389,26.8656 -48.46466,-14.62852 -137.929665,-14.60809 -141.182139,56.29851 -3.252473,70.9066 99.214579,53.37579 99.214579,53.37579"
       id="path7626"
       sodipodi:nodetypes="csssc" />
  </g>
</svg>
